<svg viewBox="0 -1 512.02912 512" xmlns="http://www.w3.org/2000/svg"><path d="m232.132812 331.414062c.542969 5.34375 2.761719 10.378907 6.339844 14.386719l2.371094 2.636719c2.089844 2.300781 4.578125 4.203125 7.347656 5.613281-7.253906 9.796875-6.628906 23.339844 1.496094 32.429688l2.363281 2.644531c4.527344 5.070312 10.898438 8.117188 17.6875 8.457031h1.382813c2.730468-.027343 5.4375-.488281 8.023437-1.375-1.371093 21.546875 5.933594 42.75 20.289063 58.878907 29.980468 33.460937 95.242187 52.207031 193.964844 55.800781h.707031c7.816406-.027344 14.71875-5.097657 17.082031-12.546875 2.363281-7.449219-.359375-15.570313-6.730469-20.09375-31.574219-22.117188-42.128906-48.921875-51.199219-75.195313-.046874-.167969-.105468-.332031-.171874-.496093-.496094-1.433594-.984376-2.855469-1.46875-4.265626-5.363282-20.144531-14.867188-38.953124-27.902344-55.21875-14.523438-16.070312-34.914063-25.605468-56.558594-26.453124 3.980469-9.183594 2.265625-19.839844-4.394531-27.308594l-2.363281-2.636719c-8.160157-9.078125-21.59375-11.128906-32.09375-4.90625-1.089844-2.898437-2.699219-5.570313-4.753907-7.882813l-2.363281-2.648437c-3.296875-3.65625-7.578125-6.285156-12.332031-7.566406-16.785157-41.070313-50.671875-91.640625-93.285157-139.09375-64.863281-72.21875-136.261718-122.179688-177.699218-124.347657-9.691406-1.058593-19.398438 1.890626-26.863282 8.164063-35.933593 32.429687 21.539063 135.492187 93.867188 216.003906 42.265625 47.089844 88.457031 85.863281 127.257812 107.019531zm262.492188 160.808594c.230469.164063.472656.324219.257812.929688-.214843.605468-.605468.683594-.855468.667968-92.601563-3.363281-155.5-20.667968-181.894532-50.058593-15.070312-17.105469-19.992187-40.898438-12.945312-62.582031l14.6875-13.253907c9.15625 30.105469 40.34375 95.34375 138.714844 95.34375 3.621094 0 7.441406-.203125 11.238281-.390625 8.667969 11.332032 19.058594 21.234375 30.796875 29.34375zm-144.339844-157.199218c.511719-.113282 1.03125-.171876 1.542969-.265626 1.398437 18.523438 8.777344 36.089844 21.027344 50.058594 17.445312 17.816406 41.113281 28.183594 66.039062 28.925782 3.785157 11.152343 8.484375 21.972656 14.054688 32.351562-99.839844 0-121.121094-72.363281-124.925781-90.976562zm82.433594 60.894531c-53.957031-7.871094-62.585938-46.78125-63.875-62.011719 16.160156 1.199219 31.246094 8.546875 42.148438 20.539062 9.921874 12.242188 17.308593 26.34375 21.726562 41.472657zm-91.359375-100.695313h.453125c2.261719.113282 4.382812 1.125 5.886719 2.816406l2.371093 2.644532c3.164063 3.527344 2.878907 8.945312-.628906 12.125l-72.621094 65.554687c-1.6875 1.503907-3.894531 2.289063-6.152343 2.191407-2.261719-.121094-4.382813-1.136719-5.894531-2.824219l-2.363282-2.636719c-3.15625-3.527344-2.875-8.941406.628906-12.125l53.242188-48.058594 5.390625-4.863281 13.996094-12.628906c1.554687-1.417969 3.585937-2.199219 5.691406-2.195313zm-31.121094 2.160156-44.671875 40.277344c-1.660156 1.535156-3.878906 2.324219-6.136718 2.183594-2.257813-.113281-4.378907-1.128906-5.886719-2.816406l-2.363281-2.644532c-3.144532-3.507812-2.886719-8.894531.578124-12.082031l44.632813-40.289062c1.554687-1.414063 3.585937-2.195313 5.691406-2.191407h.449219c2.265625.121094 4.386719 1.136719 5.898438 2.824219l2.363281 2.636719c3.148437 3.515625 2.886719 8.910156-.589844 12.101562zm-287.796875-276.308593c4.136719-3.152344 9.359375-4.515625 14.507813-3.789063 36.652343 1.902344 104.859375 50.722656 165.898437 118.664063 35.804688 38.414062 65.535156 82.070312 88.164063 129.457031-2.164063 1.015625-4.175781 2.332031-5.972657 3.910156l-44.636718 40.285156c-1.488282 1.375-2.808594 2.921876-3.925782 4.609376-44.550781-27.507813-84.652343-61.636719-118.929687-101.214844-78.863281-87.816406-115.25-173.757813-95.105469-191.921875zm0 0"/><path d="m145.09375 212.457031c2.421875 2.894531 3.769531 4.507813 8.148438 9.386719 3.167968 3.421875 8.492187 3.667969 11.960937.550781 3.46875-3.113281 3.796875-8.433593.738281-11.949219-4.175781-4.644531-5.453125-6.179687-7.765625-8.933593l-4.386719-5.199219c-1.984374-2.324219-5.054687-3.410156-8.054687-2.855469-3.003906.554688-5.480469 2.667969-6.503906 5.546875-1.019531 2.875-.429688 6.078125 1.554687 8.402344zm0 0"/><path d="m128.238281 179.65625c1.753907-1.429688 2.867188-3.5 3.097657-5.75.230468-2.253906-.445313-4.503906-1.875-6.257812-34.714844-42.589844-62.796876-81.722657-63.078126-82.097657-2.746093-3.835937-8.074218-4.71875-11.910156-1.976562-3.832031 2.742187-4.71875 8.074219-1.976562 11.910156.292968.390625 28.640625 39.933594 63.746094 82.960937 2.980468 3.644532 8.347656 4.1875 11.996093 1.210938zm0 0"/></svg>